# xmcd CD Database Entry
#
# Track frame offsets:
# 150
# 21070
# 43829
# 68370
# 89357
# 105185
# 125961
# 153991
# 181154
#
# Disc length: 2654 seconds
#
# Revision: 2
# Processed by: cddbd v1.4b41PL1 Copyright (c) Steve Scherf et al.
# Submitted via: tcd 2.0b
#
DISCID=680a5c09
DTITLE=Sol Dog - The Things You Make Me Do
DYEAR=1900
DGENRE=
TTITLE0=The Kid
TTITLE1=Minister of Sol
TTITLE2=Tomorrow Never Came
TTITLE3=The Things You Make Me Do
TTITLE4=Cast Aside
TTITLE5=Heathens and Hooligans
TTITLE6=Tumblin' Down
TTITLE7=Something Special
TTITLE8=Takin' It Easy
EXTD=
EXTT0=
EXTT1=
EXTT2=
EXTT3=
EXTT4=
EXTT5=
EXTT6=
EXTT7=
EXTT8=
PLAYORDER=
